<?xml version="1.0" encoding="utf-8"?>
<!-- Generator: Adobe Illustrator 22.1.0, SVG Export Plug-In . SVG Version: 6.00 Build 0)  -->
<svg version="1.1" id="Слой_1" xmlns="http://www.w3.org/2000/svg" xmlns:xlink="http://www.w3.org/1999/xlink" x="0px" y="0px"
	 viewBox="0 0 384 480" style="enable-background:new 0 0 384 480;" xml:space="preserve">
<style type="text/css">
	.st0{fill:url(#SVGID_1_);}
	.st1{fill:url(#SVGID_2_);}
	.st2{fill:url(#SVGID_3_);}
	.st3{fill:url(#SVGID_4_);}
	.st4{fill:url(#SVGID_5_);}
	.st5{fill:url(#SVGID_6_);}
	.st6{fill:url(#SVGID_7_);}
	.st7{fill:url(#SVGID_8_);}
	.st8{fill:url(#SVGID_9_);}
	.st9{fill:url(#SVGID_10_);}
	.st10{fill:url(#SVGID_11_);}
	.st11{fill:url(#SVGID_12_);}
	.st12{fill:url(#SVGID_13_);}
	.st13{fill:url(#SVGID_14_);}
	.st14{fill:url(#SVGID_15_);}
	.st15{fill:url(#SVGID_16_);}
</style>
<title>web_0</title>
<linearGradient id="SVGID_1_" gradientUnits="userSpaceOnUse" x1="-725.9" y1="126" x2="-341.9" y2="126" gradientTransform="matrix(1 0 0 1 725.9 50)">
	<stop  offset="0.1" style="stop-color:#5C9ACD"/>
	<stop  offset="0.9" style="stop-color:#71C4CE"/>
</linearGradient>
<path class="st0" d="M344,0H40C17.9,0,0,17.9,0,40c0,0,0,0,0,0v216c0,22.1,17.9,40,40,40c0,0,0,0,0,0h109.4L138,336h-26v16h160v-16
	h-26l-11.4-40H344c22.1,0,40-17.9,40-40c0,0,0,0,0,0V40C384,17.9,366.1,0,344,0C344,0,344,0,344,0z M154.6,336l11.4-40h52l11.4,40
	H154.6z M368,256c0,13.2-10.7,24-23.9,24c0,0-0.1,0-0.1,0H40c-13.2,0-24-10.7-24-23.9c0,0,0-0.1,0-0.1v-16h352V256z M368,224H16V40
	c0-13.2,10.7-24,23.9-24c0,0,0.1,0,0.1,0h304c13.2,0,24,10.7,24,23.9c0,0,0,0.1,0,0.1V224z"/>
<linearGradient id="SVGID_2_" gradientUnits="userSpaceOnUse" x1="-701.9" y1="374" x2="-461.9" y2="374" gradientTransform="matrix(1 0 0 1 725.9 50)">
	<stop  offset="0.1" style="stop-color:#5C9ACD"/>
	<stop  offset="0.9" style="stop-color:#71C4CE"/>
</linearGradient>
<path class="st1" d="M256,368H32c-4.4,0-8,3.6-8,8v96c0,4.4,3.6,8,8,8h224c4.4,0,8-3.6,8-8v-96C264,371.6,260.4,368,256,368z
	 M248,464H40v-80h208V464z"/>
<linearGradient id="SVGID_3_" gradientUnits="userSpaceOnUse" x1="-669.9" y1="390" x2="-653.9" y2="390" gradientTransform="matrix(1 0 0 1 725.9 50)">
	<stop  offset="0.1" style="stop-color:#5C9ACD"/>
	<stop  offset="0.9" style="stop-color:#71C4CE"/>
</linearGradient>
<rect x="56" y="432" class="st2" width="16" height="16"/>
<linearGradient id="SVGID_4_" gradientUnits="userSpaceOnUse" x1="-669.9" y1="358" x2="-653.9" y2="358" gradientTransform="matrix(1 0 0 1 725.9 50)">
	<stop  offset="0.1" style="stop-color:#5C9ACD"/>
	<stop  offset="0.9" style="stop-color:#71C4CE"/>
</linearGradient>
<rect x="56" y="400" class="st3" width="16" height="16"/>
<linearGradient id="SVGID_5_" gradientUnits="userSpaceOnUse" x1="-637.9" y1="358" x2="-621.9" y2="358" gradientTransform="matrix(1 0 0 1 725.9 50)">
	<stop  offset="0.1" style="stop-color:#5C9ACD"/>
	<stop  offset="0.9" style="stop-color:#71C4CE"/>
</linearGradient>
<rect x="88" y="400" class="st4" width="16" height="16"/>
<linearGradient id="SVGID_6_" gradientUnits="userSpaceOnUse" x1="-605.9" y1="358" x2="-589.9" y2="358" gradientTransform="matrix(1 0 0 1 725.9 50)">
	<stop  offset="0.1" style="stop-color:#5C9ACD"/>
	<stop  offset="0.9" style="stop-color:#71C4CE"/>
</linearGradient>
<rect x="120" y="400" class="st5" width="16" height="16"/>
<linearGradient id="SVGID_7_" gradientUnits="userSpaceOnUse" x1="-541.9" y1="358" x2="-525.9" y2="358" gradientTransform="matrix(1 0 0 1 725.9 50)">
	<stop  offset="0.1" style="stop-color:#5C9ACD"/>
	<stop  offset="0.9" style="stop-color:#71C4CE"/>
</linearGradient>
<rect x="184" y="400" class="st6" width="16" height="16"/>
<linearGradient id="SVGID_8_" gradientUnits="userSpaceOnUse" x1="-573.9" y1="358" x2="-557.9" y2="358" gradientTransform="matrix(1 0 0 1 725.9 50)">
	<stop  offset="0.1" style="stop-color:#5C9ACD"/>
	<stop  offset="0.9" style="stop-color:#71C4CE"/>
</linearGradient>
<rect x="152" y="400" class="st7" width="16" height="16"/>
<linearGradient id="SVGID_9_" gradientUnits="userSpaceOnUse" x1="-509.9" y1="390" x2="-493.9" y2="390" gradientTransform="matrix(1 0 0 1 725.9 50)">
	<stop  offset="0.1" style="stop-color:#5C9ACD"/>
	<stop  offset="0.9" style="stop-color:#71C4CE"/>
</linearGradient>
<rect x="216" y="432" class="st8" width="16" height="16"/>
<linearGradient id="SVGID_10_" gradientUnits="userSpaceOnUse" x1="-509.9" y1="358" x2="-493.9" y2="358" gradientTransform="matrix(1 0 0 1 725.9 50)">
	<stop  offset="0.1" style="stop-color:#5C9ACD"/>
	<stop  offset="0.9" style="stop-color:#71C4CE"/>
</linearGradient>
<rect x="216" y="400" class="st9" width="16" height="16"/>
<linearGradient id="SVGID_11_" gradientUnits="userSpaceOnUse" x1="-637.9" y1="390" x2="-525.9" y2="390" gradientTransform="matrix(1 0 0 1 725.9 50)">
	<stop  offset="0.1" style="stop-color:#5C9ACD"/>
	<stop  offset="0.9" style="stop-color:#71C4CE"/>
</linearGradient>
<rect x="88" y="432" class="st10" width="112" height="16"/>
<linearGradient id="SVGID_12_" gradientUnits="userSpaceOnUse" x1="-445.9" y1="374" x2="-365.9" y2="374" gradientTransform="matrix(1 0 0 1 725.9 50)">
	<stop  offset="0.1" style="stop-color:#5C9ACD"/>
	<stop  offset="0.9" style="stop-color:#71C4CE"/>
</linearGradient>
<path class="st11" d="M320,368c-22.1,0-40,17.9-40,40c0,0,0,0,0,0v32c0,22.1,17.9,40,40,40s40-17.9,40-40v-32
	C360,385.9,342.1,368,320,368C320,368,320,368,320,368z M344,440c0,13.3-10.7,24-24,24s-24-10.7-24-24l0,0v-32c0-13.3,10.7-24,24-24
	s24,10.7,24,24V440z"/>
<linearGradient id="SVGID_13_" gradientUnits="userSpaceOnUse" x1="-413.9" y1="358" x2="-397.9" y2="358" gradientTransform="matrix(1 0 0 1 725.9 50)">
	<stop  offset="0.1" style="stop-color:#5C9ACD"/>
	<stop  offset="0.9" style="stop-color:#71C4CE"/>
</linearGradient>
<rect x="312" y="400" class="st12" width="16" height="16"/>
<linearGradient id="SVGID_14_" gradientUnits="userSpaceOnUse" x1="-557.7001" y1="78.15" x2="-510.3" y2="78.15" gradientTransform="matrix(1 0 0 1 725.9 50)">
	<stop  offset="0.1" style="stop-color:#5C9ACD"/>
	<stop  offset="0.9" style="stop-color:#71C4CE"/>
</linearGradient>
<polygon class="st13" points="168.2,181.9 183.6,186.3 215.6,74.4 200.3,70 "/>
<linearGradient id="SVGID_15_" gradientUnits="userSpaceOnUse" x1="-637.8951" y1="78.05" x2="-576.8" y2="78.05" gradientTransform="matrix(1 0 0 1 725.9 50)">
	<stop  offset="0.1" style="stop-color:#5C9ACD"/>
	<stop  offset="0.9" style="stop-color:#71C4CE"/>
</linearGradient>
<path class="st14" d="M138.9,81.9l-48,40c-3.4,2.8-3.9,7.8-1.1,11.2c0,0,0,0.1,0.1,0.1c0.3,0.4,0.6,0.7,1,1l48,40l10.2-12.3
	L108.5,128l40.6-33.9L138.9,81.9z"/>
<linearGradient id="SVGID_16_" gradientUnits="userSpaceOnUse" x1="-491" y1="78.1" x2="-429.9049" y2="78.1" gradientTransform="matrix(1 0 0 1 725.9 50)">
	<stop  offset="0.1" style="stop-color:#5C9ACD"/>
	<stop  offset="0.9" style="stop-color:#71C4CE"/>
</linearGradient>
<path class="st15" d="M293.1,121.9l-48-40l-10.2,12.3l40.6,33.9L234.9,162l10.2,12.3l48-40c3.4-2.8,3.9-7.8,1.1-11.2
	c0,0,0-0.1-0.1-0.1C293.8,122.6,293.5,122.2,293.1,121.9z"/>
</svg>
