<svg xmlns="http://www.w3.org/2000/svg" xmlns:xlink="http://www.w3.org/1999/xlink" viewBox="0 0 412.952 352.369"><defs><style>.a{fill:url(#a);}</style><linearGradient id="a" x1="8.6" y1="189.384" x2="421.552" y2="189.384" gradientTransform="matrix(1, 0, 0, -1, 0, 430)" gradientUnits="userSpaceOnUse"><stop offset="0.1" stop-color="#5c9acd"/><stop offset="0.9" stop-color="#71c4ce"/></linearGradient></defs><title>wordpress-logo_0</title><path class="a" d="M397.3,66.7c-12.1-3.8-26.3-2.8-39,2.8a60.571,60.571,0,0,0-31.5,33.3l-.4.9-.2.9c-4.3,25.6,7.5,45.8,18.8,65.3,10,17.2,19.5,33.5,18.3,53.2L335,309.9,270.7,113h18.9a9,9,0,0,0,0-18H171.1a9,9,0,0,0,0,18h13l36.8,99.5L185.2,314.9,116.3,113h14.6a9,9,0,0,0,0-18H17.6a9,9,0,0,0,0,18H30.3L136,403.8a19.637,19.637,0,0,0,18.6,13h.1a19.717,19.717,0,0,0,18.6-13.3L230.6,239l61.3,165.7a16.33,16.33,0,0,0,15.6,10.8h.3A16.387,16.387,0,0,0,323.3,404l97-297.4.2-.7C424.8,88,415.7,72.5,397.3,66.7ZM156.4,397.5a1.8,1.8,0,0,1-3.4,0L49.5,112.9H97.2l78.3,229.5Zm151-2.8L203.2,112.9h48.6l73.8,225.9ZM403,101.5,374.8,188c-4-9.8-9.2-18.8-14.2-27.2-10.5-18-19.6-33.5-16.8-52.3,10.1-24.1,34.5-29,48-24.7C398.3,85.9,405.4,90.6,403,101.5Z" transform="translate(-8.6 -64.431)"/></svg>